<mxfile host="65bd71144e">
    <diagram id="6ut64yFbD8Lq4hzKwgBt" name="ページ1">
        <mxGraphModel dx="736" dy="466" grid="1" gridSize="10" guides="1" tooltips="1" connect="1" arrows="1" fold="1" page="1" pageScale="1" pageWidth="827" pageHeight="1169" math="0" shadow="0">
            <root>
                <mxCell id="0"/>
                <mxCell id="1" parent="0"/>
                <mxCell id="8WFfe0K-qe_epKbG1VeS-6" value="訪問者" style="shape=umlActor;verticalLabelPosition=bottom;verticalAlign=top;html=1;outlineConnect=0;" parent="1" vertex="1">
                    <mxGeometry x="10" y="330" width="30" height="60" as="geometry"/>
                </mxCell>
                <mxCell id="8WFfe0K-qe_epKbG1VeS-7" value="変更" style="shape=umlBoundary;whiteSpace=wrap;html=1;" parent="1" vertex="1">
                    <mxGeometry x="240" y="270" width="100" height="80" as="geometry"/>
                </mxCell>
                <mxCell id="8WFfe0K-qe_epKbG1VeS-8" value="参照" style="shape=umlBoundary;whiteSpace=wrap;html=1;" parent="1" vertex="1">
                    <mxGeometry x="260" y="160" width="100" height="80" as="geometry"/>
                </mxCell>
                <mxCell id="8WFfe0K-qe_epKbG1VeS-9" value="新規登録" style="shape=umlBoundary;whiteSpace=wrap;html=1;" parent="1" vertex="1">
                    <mxGeometry x="150" y="40" width="110" height="80" as="geometry"/>
                </mxCell>
                <mxCell id="8WFfe0K-qe_epKbG1VeS-10" value="削除" style="shape=umlBoundary;whiteSpace=wrap;html=1;" parent="1" vertex="1">
                    <mxGeometry x="220" y="470" width="100" height="80" as="geometry"/>
                </mxCell>
                <mxCell id="8WFfe0K-qe_epKbG1VeS-11" value="ログイン画面" style="shape=umlBoundary;whiteSpace=wrap;html=1;" parent="1" vertex="1">
                    <mxGeometry x="420" y="350" width="100" height="80" as="geometry"/>
                </mxCell>
                <mxCell id="8WFfe0K-qe_epKbG1VeS-12" value="ログアウト" style="shape=umlBoundary;whiteSpace=wrap;html=1;" parent="1" vertex="1">
                    <mxGeometry x="200" y="630" width="100" height="80" as="geometry"/>
                </mxCell>
                <mxCell id="8WFfe0K-qe_epKbG1VeS-13" value="" style="endArrow=open;endFill=1;endSize=12;html=1;rounded=0;entryX=-0.017;entryY=0.561;entryDx=0;entryDy=0;entryPerimeter=0;exitX=1;exitY=0.3333333333333333;exitDx=0;exitDy=0;exitPerimeter=0;" parent="1" source="8WFfe0K-qe_epKbG1VeS-6" target="8WFfe0K-qe_epKbG1VeS-9" edge="1">
                    <mxGeometry width="160" relative="1" as="geometry">
                        <mxPoint x="80" y="330" as="sourcePoint"/>
                        <mxPoint x="240" y="330" as="targetPoint"/>
                    </mxGeometry>
                </mxCell>
                <mxCell id="8WFfe0K-qe_epKbG1VeS-14" value="" style="endArrow=open;endFill=1;endSize=12;html=1;rounded=0;exitX=0.5;exitY=0.5;exitDx=0;exitDy=0;exitPerimeter=0;entryX=0.02;entryY=0.591;entryDx=0;entryDy=0;entryPerimeter=0;" parent="1" source="8WFfe0K-qe_epKbG1VeS-6" target="8WFfe0K-qe_epKbG1VeS-8" edge="1">
                    <mxGeometry width="160" relative="1" as="geometry">
                        <mxPoint x="80" y="330" as="sourcePoint"/>
                        <mxPoint x="190" y="232" as="targetPoint"/>
                    </mxGeometry>
                </mxCell>
                <mxCell id="8WFfe0K-qe_epKbG1VeS-15" value="" style="endArrow=open;endFill=1;endSize=12;html=1;rounded=0;entryX=0.033;entryY=0.489;entryDx=0;entryDy=0;entryPerimeter=0;exitX=0.5;exitY=0.5;exitDx=0;exitDy=0;exitPerimeter=0;" parent="1" source="8WFfe0K-qe_epKbG1VeS-6" target="8WFfe0K-qe_epKbG1VeS-7" edge="1">
                    <mxGeometry width="160" relative="1" as="geometry">
                        <mxPoint x="90" y="330" as="sourcePoint"/>
                        <mxPoint x="610" y="249.38" as="targetPoint"/>
                    </mxGeometry>
                </mxCell>
                <mxCell id="8WFfe0K-qe_epKbG1VeS-16" value="" style="endArrow=open;endFill=1;endSize=12;html=1;rounded=0;exitX=0.5;exitY=0.5;exitDx=0;exitDy=0;exitPerimeter=0;entryX=0.092;entryY=0.541;entryDx=0;entryDy=0;entryPerimeter=0;" parent="1" source="8WFfe0K-qe_epKbG1VeS-6" target="8WFfe0K-qe_epKbG1VeS-10" edge="1">
                    <mxGeometry width="160" relative="1" as="geometry">
                        <mxPoint x="460" y="259.38" as="sourcePoint"/>
                        <mxPoint x="620" y="259.38" as="targetPoint"/>
                    </mxGeometry>
                </mxCell>
                <mxCell id="8WFfe0K-qe_epKbG1VeS-17" value="" style="endArrow=open;endFill=1;endSize=12;html=1;rounded=0;exitX=0.5;exitY=0.5;exitDx=0;exitDy=0;exitPerimeter=0;entryX=-0.042;entryY=0.53;entryDx=0;entryDy=0;entryPerimeter=0;" parent="1" source="8WFfe0K-qe_epKbG1VeS-6" target="8WFfe0K-qe_epKbG1VeS-11" edge="1">
                    <mxGeometry width="160" relative="1" as="geometry">
                        <mxPoint x="470" y="269.38" as="sourcePoint"/>
                        <mxPoint x="630" y="269.38" as="targetPoint"/>
                    </mxGeometry>
                </mxCell>
                <mxCell id="8WFfe0K-qe_epKbG1VeS-18" value="" style="endArrow=open;endFill=1;endSize=12;html=1;rounded=0;exitX=0.5;exitY=0.5;exitDx=0;exitDy=0;exitPerimeter=0;entryX=-0.008;entryY=0.52;entryDx=0;entryDy=0;entryPerimeter=0;" parent="1" source="8WFfe0K-qe_epKbG1VeS-6" target="8WFfe0K-qe_epKbG1VeS-12" edge="1">
                    <mxGeometry width="160" relative="1" as="geometry">
                        <mxPoint x="480" y="279.38" as="sourcePoint"/>
                        <mxPoint x="640" y="279.38" as="targetPoint"/>
                    </mxGeometry>
                </mxCell>
                <mxCell id="8WFfe0K-qe_epKbG1VeS-21" value="ログアウトする" style="ellipse;shape=umlEntity;whiteSpace=wrap;html=1;" parent="1" vertex="1">
                    <mxGeometry x="410" y="630" width="90" height="80" as="geometry"/>
                </mxCell>
                <mxCell id="8WFfe0K-qe_epKbG1VeS-22" value="" style="curved=1;endArrow=classic;html=1;rounded=0;exitX=0.97;exitY=0.466;exitDx=0;exitDy=0;exitPerimeter=0;" parent="1" source="8WFfe0K-qe_epKbG1VeS-12" target="8WFfe0K-qe_epKbG1VeS-21" edge="1">
                    <mxGeometry width="50" height="50" relative="1" as="geometry">
                        <mxPoint x="390" y="720" as="sourcePoint"/>
                        <mxPoint x="440" y="670" as="targetPoint"/>
                        <Array as="points">
                            <mxPoint x="360" y="680"/>
                            <mxPoint x="390" y="670"/>
                        </Array>
                    </mxGeometry>
                </mxCell>
                <mxCell id="8WFfe0K-qe_epKbG1VeS-23" value="ユーザ情報の入力" style="ellipse;shape=umlControl;whiteSpace=wrap;html=1;" parent="1" vertex="1">
                    <mxGeometry x="360" y="20" width="121" height="120" as="geometry"/>
                </mxCell>
                <mxCell id="8WFfe0K-qe_epKbG1VeS-24" value="登録完了" style="ellipse;shape=umlEntity;whiteSpace=wrap;html=1;" parent="1" vertex="1">
                    <mxGeometry x="580" y="30" width="120" height="110" as="geometry"/>
                </mxCell>
                <mxCell id="2" value="" style="endArrow=classic;html=1;entryX=0.006;entryY=0.519;entryDx=0;entryDy=0;entryPerimeter=0;exitX=0.994;exitY=0.413;exitDx=0;exitDy=0;exitPerimeter=0;" parent="1" source="8WFfe0K-qe_epKbG1VeS-9" target="8WFfe0K-qe_epKbG1VeS-23" edge="1">
                    <mxGeometry width="50" height="50" relative="1" as="geometry">
                        <mxPoint x="350" y="240" as="sourcePoint"/>
                        <mxPoint x="400" y="190" as="targetPoint"/>
                    </mxGeometry>
                </mxCell>
                <mxCell id="3" value="" style="endArrow=classic;html=1;entryX=0;entryY=0.5;entryDx=0;entryDy=0;exitX=0.981;exitY=0.647;exitDx=0;exitDy=0;exitPerimeter=0;" parent="1" source="8WFfe0K-qe_epKbG1VeS-23" target="8WFfe0K-qe_epKbG1VeS-24" edge="1">
                    <mxGeometry width="50" height="50" relative="1" as="geometry">
                        <mxPoint x="470" y="140" as="sourcePoint"/>
                        <mxPoint x="520" y="90" as="targetPoint"/>
                    </mxGeometry>
                </mxCell>
                <mxCell id="4" value="ログイン" style="ellipse;shape=umlControl;whiteSpace=wrap;html=1;" parent="1" vertex="1">
                    <mxGeometry x="450" y="170" width="70" height="80" as="geometry"/>
                </mxCell>
            </root>
        </mxGraphModel>
    </diagram>
</mxfile>